HIERARCHY
ROOT Hips
{
	OFFSET -3.958830 18.904000 13.208200
	CHANNELS 6 Xposition Yposition Zposition Zrotation Yrotation Xrotation 
	JOINT LHipJoint
	{
		OFFSET 0.000000 0.000000 0.000000
		CHANNELS 3 Zrotation Yrotation Xrotation
		JOINT LeftUpLeg
		{
			OFFSET 1.800000 -1.400000 0.085000
			CHANNELS 3 Zrotation Yrotation Xrotation
			JOINT LeftLeg
			{
				OFFSET 2.215000 -6.000000 0.000000
				CHANNELS 3 Zrotation Yrotation Xrotation
				JOINT LeftFoot
				{
					OFFSET 2.500000 -6.900000 0.000000
					CHANNELS 3 Zrotation Yrotation Xrotation
					JOINT LeftToeBase
					{
						OFFSET 0.200000 -0.500000 1.950000
						CHANNELS 3 Zrotation Yrotation Xrotation
						End Site
						{
							OFFSET 0.000000 0.000000 0.000000
						}
					}
				}
			}
		}
	}
	JOINT RHipJoint
	{
		OFFSET 0.000000 0.000000 0.000000
		CHANNELS 3 Zrotation Yrotation Xrotation
		JOINT RightUpLeg
		{
			OFFSET -1.800000 -1.400000 0.085000
			CHANNELS 3 Zrotation Yrotation Xrotation
			JOINT RightLeg
			{
				OFFSET -2.215000 -6.000000 0.000000
				CHANNELS 3 Zrotation Yrotation Xrotation
				JOINT RightFoot
				{
					OFFSET -2.500000 -6.900000 0.000000
					CHANNELS 3 Zrotation Yrotation Xrotation
					JOINT RightToeBase
					{
						OFFSET -0.200000 -0.500000 1.950000
						CHANNELS 3 Zrotation Yrotation Xrotation
						End Site
						{
							OFFSET 0.000000 0.000000 0.000000
						}
					}
				}
			}
		}
	}
	JOINT LowerBack
	{
		OFFSET 0.000000 0.000000 0.000000
		CHANNELS 3 Zrotation Yrotation Xrotation
		JOINT Spine
		{
			OFFSET -0.087000 1.940000 -0.288900
			CHANNELS 3 Zrotation Yrotation Xrotation
			JOINT Spine1
			{
				OFFSET 0.000000 1.950000 0.060000
				CHANNELS 3 Zrotation Yrotation Xrotation
				JOINT Neck
				{
					OFFSET 0.000000 0.000000 0.000000
					CHANNELS 3 Zrotation Yrotation Xrotation
					JOINT Neck1
					{
						OFFSET 0.000000 1.600000 0.340000
						CHANNELS 3 Zrotation Yrotation Xrotation
						JOINT Head
						{
							OFFSET 0.000000 1.667000 -0.240000
							CHANNELS 3 Zrotation Yrotation Xrotation
							End Site
							{
								OFFSET 0.000000 0.000000 0.000000
							}
						}
					}
				}
				JOINT LeftShoulder
				{
					OFFSET 0.000000 0.000000 0.000000
					CHANNELS 3 Zrotation Yrotation Xrotation
					JOINT LeftArm
					{
						OFFSET 2.700000 1.550000 -0.730000
						CHANNELS 3 Zrotation Yrotation Xrotation
						JOINT LeftForeArm
						{
							OFFSET 5.450000 0.000000 0.000000
							CHANNELS 3 Zrotation Yrotation Xrotation
							JOINT LeftHand
							{
								OFFSET 3.450000 0.000000 0.000000
								CHANNELS 3 Zrotation Yrotation Xrotation
								JOINT LeftHandIndex1
								{
									OFFSET 0.750000 0.000000 0.000000
									CHANNELS 3 Zrotation Yrotation Xrotation
									End Site
									{
										OFFSET 0.000000 0.000000 0.000000
									}
								}
							}
						}
					}
				}
				JOINT RightShoulder
				{
					OFFSET 0.000000 0.000000 0.000000
					CHANNELS 3 Zrotation Yrotation Xrotation
					JOINT RightArm
					{
						OFFSET -2.700000 1.550000 -0.730000
						CHANNELS 3 Zrotation Yrotation Xrotation
						JOINT RightForeArm
						{
							OFFSET -5.450000 0.000000 0.000000
							CHANNELS 3 Zrotation Yrotation Xrotation
							JOINT RightHand
							{
								OFFSET -3.450000 0.000000 0.000000
								CHANNELS 3 Zrotation Yrotation Xrotation
								JOINT RightHandIndex1
								{
									OFFSET -0.750000 0.000000 0.000000
									CHANNELS 3 Zrotation Yrotation Xrotation
									End Site
									{
										OFFSET 0.000000 0.000000 0.000000
									}
								}
							}
						}
					}
				}
			}
		}
	}
}
MOTION
Frames: 5
Frame Time: 0.016667
0.030120 17.751740 -6.556930 -164.665874 -6.414122 158.559184 -14.889359 12.018371 2.015189 13.114841 0.924213 10.081386 -4.312519 6.100421 7.398730 0.267692 5.440706 2.974061 0.444920 0.134310 0.111200 18.783401 -8.915622 5.649614 -10.925621 14.734647 -35.699045 69.461909 -31.281433 32.088504 -2.682839 -11.114012 0.674420 -0.109880 0.358620 0.467390 -4.724578 -0.776251 -9.084396 23.728263 -8.087182 29.822062 -8.445570 -2.243294 21.141230 1.970407 -0.050649 -19.009103 -2.000882 -10.067815 40.869060 14.184480 -16.208520 -16.689240 -5.302336 -35.312599 12.618438 -16.461388 -4.221635 -12.880351 -105.177422 -78.653639 74.461692 -3.575412 2.520346 0.626360 -0.112760 0.211270 0.394950 1.540511 37.356552 13.839453 16.966764 12.389794 -24.095683 10.328593 75.740352 -3.349250 1.397109 -2.259951 0.055050 0.146220 -0.042460 0.162380 
0.010010 17.744550 -6.544610 -164.561946 -3.929674 159.360797 -14.850222 11.877750 2.024073 13.058330 0.893096 10.521098 -4.342011 5.974765 6.447696 0.290193 5.399136 2.992105 0.459440 0.161110 0.124580 18.834988 -8.906568 5.729510 -12.583008 13.877201 -37.246353 73.194543 -33.044207 31.529666 -2.751191 -11.309701 0.630016 -0.095260 0.342120 0.446580 -4.827475 -0.581964 -9.086385 24.292223 -8.420624 29.323004 -8.777396 -2.615797 21.035971 1.770667 0.337971 -18.679952 -1.322611 -10.996086 40.803494 14.290580 -16.888470 -16.624920 -4.597760 -35.304476 12.221965 -16.235901 -4.203161 -13.648492 -113.653360 -76.782777 82.476859 -3.417269 2.634458 0.607580 -0.121770 0.210570 0.398200 1.199474 36.786370 14.036229 18.015085 12.622873 -23.683015 14.700332 77.598975 -1.030544 1.409956 -2.322378 0.061590 0.144460 -0.067240 0.167870 
-0.070020 17.749150 -6.521260 -163.676243 2.494422 160.354014 -14.803320 11.725578 2.119908 13.933712 0.812591 11.802244 -5.321682 6.160350 4.968663 0.276916 5.683432 2.933848 0.314510 0.030670 0.025290 18.882584 -8.906973 5.758329 -12.993094 12.589152 -38.924049 77.821986 -37.125842 31.898930 -2.825970 -11.690896 0.581634 -0.122450 0.450670 0.367830 -4.951505 -0.479384 -9.039254 26.755795 -9.896725 28.566367 -9.717325 -3.632031 23.471777 2.072666 -0.572508 -19.343674 -3.258898 -12.734288 40.659721 14.593670 -19.523610 -18.431900 -2.047218 -36.964884 11.929651 -17.035936 -4.525907 -16.632792 -119.093997 -78.374779 90.268869 -3.388081 2.263493 0.602460 -0.081810 0.139500 0.340700 -1.647113 39.040609 15.533789 17.805017 11.980295 -26.594955 20.792844 82.656175 -0.070343 1.116139 -2.406706 -0.037710 0.310880 0.058940 0.171590 
-0.133430 17.730310 -6.529580 -163.038910 9.450998 161.275523 -14.982068 12.016861 2.448314 14.508926 0.737500 13.546925 -5.742491 6.151280 2.769352 0.381479 5.897293 2.836495 0.315630 0.024430 0.063750 18.657953 -8.624389 5.749230 -12.058494 11.285419 -40.028146 79.575837 -42.224999 34.362715 -3.022065 -12.200865 0.446698 -0.152560 0.364030 0.377900 -4.397385 -1.535894 -9.206370 24.091813 -10.137791 31.596591 -7.690218 -4.391866 21.483175 1.841396 1.170491 -20.939779 -0.900094 -15.103818 43.435727 15.020120 -20.964670 -19.864800 -3.112515 -38.816994 11.575950 -13.947973 -5.602037 -16.054671 -111.946561 -79.779929 84.454530 -3.430192 1.883781 0.666790 -0.140320 0.211250 0.313220 -0.952423 39.496318 16.330799 16.143927 11.441569 -25.235752 47.528461 86.241288 18.459439 0.682032 -3.024375 -0.018370 0.274580 0.045880 0.148200 
-0.152610 17.726600 -6.513770 -164.231142 16.687332 161.550789 -15.157938 12.195252 2.703338 13.127488 1.104509 15.837288 -6.344651 6.196662 1.124762 0.358948 6.190519 2.731970 0.271630 -0.121310 0.091680 18.478911 -8.338401 5.765142 -11.172448 10.894156 -41.184203 77.604718 -46.711784 39.154897 -3.158874 -12.804571 0.264611 -0.189480 0.353810 0.325220 -3.959041 -2.420562 -9.340945 18.930331 -9.482674 35.208221 -5.022521 -5.029802 21.409798 0.626941 1.327972 -22.569039 -1.437421 -16.600714 45.754316 18.472850 -23.552530 -21.005000 -1.227436 -38.552082 9.595521 -12.021677 -7.125211 -17.111895 -112.989921 -80.257187 86.641046 -3.301961 1.668941 0.787670 -0.201440 0.178660 0.262750 -0.625063 39.188228 18.932144 13.000303 14.389658 -14.365112 -97.917404 79.993474 -130.850140 2.006195 -1.151803 -0.125060 0.307890 0.103710 0.074610 
